<svg width="117" height="21" viewBox="0 0 117 21" fill="none" xmlns="http://www.w3.org/2000/svg">
<path d="M0.125 2.23V4.575H17.205V9.58H0.195V18.4H2.96V11.925H19.97V2.23H0.125ZM0.195 17.035V19.45H20.495V17.035H0.195ZM32.7073 2.58V17.665H35.6123V4.96H52.0273V2.58H32.7073ZM32.7073 16.825V19.205H52.3073V16.825H32.7073ZM72.8495 7.235V8.46C72.8495 13.185 69.2095 16.685 63.8545 17.91L65.2545 20.22C71.1345 18.68 75.3345 14.62 75.3345 8.46V7.235H72.8495ZM73.7595 7.235V8.46C73.7595 14.62 77.9945 18.68 83.8745 20.22L85.2395 17.91C79.8845 16.685 76.2445 13.185 76.2445 8.46V7.235H73.7595ZM64.6945 5.135V7.55H84.3995V5.135H64.6945ZM73.1295 0.549999V6.36H76.0345V0.549999H73.1295ZM97.0318 2.51V18.12H99.9368V4.89H116.702V2.51H97.0318ZM97.0318 16.895V19.275H116.982V16.895H97.0318ZM97.7318 9.545V11.925H116.422V9.545H97.7318Z" fill="#999999"/>
</svg>
